<?xml version="1.0" encoding="UTF-8" standalone="no"?>
<svg
   viewBox="0 0 576 576"
   aria-hidden="true"
   version="1.1"
   id="svg8"
   sodipodi:docname="odata-mark.svg"
   xml:space="preserve"
   inkscape:version="1.4.3 (0d15f75, 2025-12-25)"
   width="576"
   height="576"
   xmlns:inkscape="http://www.inkscape.org/namespaces/inkscape"
   xmlns:sodipodi="http://sodipodi.sourceforge.net/DTD/sodipodi-0.dtd"
   xmlns="http://www.w3.org/2000/svg"
   xmlns:svg="http://www.w3.org/2000/svg"><defs
     id="defs8" /><sodipodi:namedview
     id="namedview8"
     pagecolor="#ffffff"
     bordercolor="#000000"
     borderopacity="0.25"
     inkscape:showpageshadow="2"
     inkscape:pageopacity="0.0"
     inkscape:pagecheckerboard="0"
     inkscape:deskcolor="#d1d1d1"
     inkscape:zoom="37.8125"
     inkscape:cx="2.1024793"
     inkscape:cy="20.509091"
     inkscape:window-width="3840"
     inkscape:window-height="2054"
     inkscape:window-x="-11"
     inkscape:window-y="-11"
     inkscape:window-maximized="1"
     inkscape:current-layer="svg8"><inkscape:page
       x="0"
       y="0"
       width="576"
       height="576"
       id="page2"
       margin="0"
       bleed="0" /></sodipodi:namedview><!-- Hand-traced from the official OData icon
       (https://www.odata.org/odata-icon-usage-guidelines/, source
       PNG: ODataLogo-250.png in the OData-Icons.zip bundle).
       Brand orange #F58917 (OData reference colour), rounded
       outer square, four rows of white "data records" that narrow
       toward the bottom plus a circle in the bottom-left that
       reads as a query result / aggregate dot. Proportions match
       the 250×250 master at the row-spacing level so the icon
       reads as the official mark when scaled to the 16-32 px
       slots the Bowire site uses. --><!-- Row 1 — 2 wide rects --><!-- Row 2 — slightly narrower --><!-- Row 3 — narrower again --><!-- Row 4 — circle left, short rect right --><path
     style="fill:#ff8c03;stroke:none;stroke-width:1.0027"
     d="M 0,0 V 24 H 24 V 0 H 0 M 10.900399,2.2079994 V 4.4160001 H 2.1992028 V 2.2079994 h 8.7011962 m 10.900398,0 V 4.4160001 H 13.099601 V 2.2079994 h 8.701196 M 10.900399,6.528 V 8.7360004 H 2.1992028 V 6.528 h 8.7011962 m 10.900398,0 V 8.7360004 H 13.099601 V 6.528 h 8.701196 m -10.900398,4.416 v 2.112 H 2.1992028 v -2.112 h 8.7011962 m 10.900398,0 v 2.112 h -8.701196 v -2.112 h 8.701196 M 6.3107564,14.715557 C 11.145555,14.142815 11.815525,21.744284 6.9800788,22.340518 3.5295966,22.765981 1.3927299,18.321647 3.8336283,15.848666 4.5126375,15.160734 5.3682729,14.827204 6.3107564,14.715557 M 21.800797,15.264 v 2.208001 H 13.099601 V 15.264 Z"
     id="path8"
     inkscape:export-filename="odata-mark.svg"
     inkscape:export-xdpi="96"
     inkscape:export-ydpi="96" /></svg>
