<svg xmlns="http://www.w3.org/2000/svg" viewBox="0 0 330.711 95.114075" role="img" aria-label="Bowire"><g transform="translate(-57.679684,-154.66912)" fill="#ffffff"><path d="m 98.433779,206.65457 v 16.57418 h 7.672911 c 3.27394,0 5.83185,-0.75992 7.67344,-2.27997 1.87082,-1.52004 2.80603,-3.59565 2.80603,-6.22649 0,-2.51391 -0.92052,-4.48667 -2.76211,-5.91902 -1.81236,-1.43234 -4.35557,-2.1487 -7.62951,-2.1487 z"/><path d="m 98.433779,181.22304 v 14.90814 h 6.225971 c 2.92316,0 5.21814,-0.70167 6.88434,-2.10478 1.69543,-1.43235 2.54299,-3.39093 2.54299,-5.87561 0,-4.61859 -3.44955,-6.92775 -10.3482,-6.92775 z"/><path d="m 105.23698,154.66911 c -26.26504,-1.7e-4 -47.557183,21.29175 -47.557298,47.55679 -1.66e-4,26.26524 21.292058,47.55747 47.557298,47.5573 26.26504,-1.2e-4 47.55695,-21.29226 47.55678,-47.5573 -1.2e-4,-26.26484 -21.29194,-47.55667 -47.55678,-47.55679 z M 84.270824,170.7875 h 22.888516 c 7.01558,0 12.4085,1.28631 16.17937,3.85868 3.77088,2.57238 5.65651,6.19671 5.65651,10.87376 0,3.39086 -1.15458,6.35812 -3.46387,8.90126 -2.28007,2.54315 -5.20324,4.31175 -8.76949,5.30562 v 0.17519 c 4.47243,0.5554 8.03849,2.20696 10.69857,4.95473 2.6893,2.74777 4.03386,6.09499 4.03386,10.04125 0,5.75862 -2.06092,10.33336 -6.18257,13.72423 -4.12165,3.36163 -9.74863,5.04258 -16.88114,5.04258 H 84.270824 Z"/></g><path transform="translate(114.763,72.533)" d="M24.621 0L4.351 0L4.351-48.018L23.396-48.018Q31.292-48.018 35.272-44.537Q39.252-41.057 39.252-35.675Q39.252-31.421 36.787-28.811Q34.321-26.200 30.615-25.362L30.615-24.879Q33.322-24.750 35.723-23.332Q38.124-21.914 39.623-19.352Q41.121-16.790 41.121-13.245Q41.121-9.442 39.252-6.445Q37.383-3.448 33.709-1.724Q30.035 0 24.621 0M14.180-21.108L14.180-8.089L22.688-8.089Q27.038-8.089 29.020-9.765Q31.002-11.440 31.002-14.180Q31.002-17.177 28.827-19.143Q26.651-21.108 22.945-21.108L14.180-21.108M14.180-39.993L14.180-27.844L21.946-27.844Q25.104-27.844 27.199-29.520Q29.294-31.195 29.294-34.096Q29.294-36.706 27.441-38.350Q25.588-39.993 22.140-39.993L14.180-39.993M61.925 0.709Q56.511 0.709 52.547-1.627Q48.583-3.964 46.440-8.137Q44.297-12.311 44.297-17.854Q44.297-23.429 46.440-27.618Q48.583-31.808 52.547-34.144Q56.511-36.480 61.925-36.480Q67.339-36.480 71.303-34.144Q75.267-31.808 77.410-27.618Q79.553-23.429 79.553-17.854Q79.553-12.311 77.410-8.137Q75.267-3.964 71.303-1.627Q67.339 0.709 61.925 0.709M61.925-6.896Q65.792-6.896 67.758-10.022Q69.724-13.148 69.724-17.886Q69.724-22.655 67.758-25.765Q65.792-28.875 61.925-28.875Q58.058-28.875 56.108-25.765Q54.159-22.655 54.159-17.886Q54.159-13.148 56.108-10.022Q58.058-6.896 61.925-6.896M101.646 0L91.817 0L81.183-36.029L91.334-36.029L94.460-22.720Q95.104-19.723 95.878-16.274Q96.651-12.826 97.393-8.798Q98.134-12.729 98.956-16.194Q99.777-19.658 100.519-22.720L103.806-36.029L112.700-36.029L115.923-22.720Q116.600-19.658 117.421-16.210Q118.243-12.762 119.017-8.766Q119.693-12.762 120.435-16.210Q121.176-19.658 121.885-22.720L125.011-36.029L135.291-36.029L124.592 0L114.763 0L110.767-13.890Q110.090-16.210 109.461-19.110Q108.833-22.011 108.188-24.847Q107.576-22.011 106.932-19.094Q106.287-16.178 105.643-13.890L101.646 0M148.103 0L138.435 0L138.435-36.029L148.103-36.029L148.103 0M143.269-40.734Q141.078-40.734 139.531-42.185Q137.984-43.635 137.984-45.697Q137.984-47.760 139.531-49.210Q141.078-50.660 143.269-50.660Q145.460-50.660 147.023-49.210Q148.586-47.760 148.586-45.697Q148.586-43.635 147.023-42.185Q145.460-40.734 143.269-40.734M164.009 0L154.341 0L154.341-36.029L163.686-36.029L163.686-29.745L164.073-29.745Q165.072-33.064 167.409-34.789Q169.745-36.513 172.774-36.513Q174.418-36.513 175.900-36.190L175.900-27.554Q175.256-27.747 174.015-27.892Q172.774-28.037 171.711-28.037Q168.359-28.037 166.184-25.942Q164.009-23.848 164.009-20.496L164.009 0M195.512 0.709Q190.001 0.709 186.005-1.547Q182.009-3.803 179.866-7.960Q177.723-12.117 177.723-17.821Q177.723-23.396 179.866-27.586Q182.009-31.775 185.892-34.128Q189.776-36.480 195.029-36.480Q199.734-36.480 203.569-34.482Q207.404-32.484 209.676-28.424Q211.948-24.363 211.948-18.208L211.948-15.501L187.294-15.501Q187.455-11.086 189.744-8.830Q192.032-6.574 195.673-6.574Q198.219-6.574 200.040-7.654Q201.861-8.733 202.634-10.828L211.400-9.185Q210.079-4.705 205.937-1.998Q201.796 0.709 195.512 0.709M187.359-21.560L202.634-21.560Q202.280-25.072 200.378-27.135Q198.477-29.197 195.125-29.197Q191.645-29.197 189.647-27.054Q187.649-24.911 187.359-21.560" fill="#ffffff"/></svg>
