<?xml version="1.0" encoding="UTF-8"?>
<svg xmlns="http://www.w3.org/2000/svg" viewBox="0 0 1900 320" role="img" aria-label="Küstenlogik">
  <g transform="translate(-23.65,-106) scale(0.97)">
  <path d="m 280.37578,239.03474 c -18.57628,-0.70835 -37.92925,4.2335 -58.98833,14.23729 v 22.2451 c 2.79521,-1.50931 5.93115,-3.24255 9.56376,-5.27307 29.7253,-16.61552 41.01227,-19.78719 62.31742,-17.52068 19.19368,2.04189 39.03848,8.79005 55.13871,18.75035 l 6.42878,3.97723 -4.6966,-4.42767 c -23.28087,-20.82867 -45.87996,-31.0778 -69.76374,-31.98855 z M 45.166484,266.84752 c -0.247928,0.22994 17.30246,11.78493 22.0302,14.50415 16.177,9.30439 33.068536,15.39726 55.703366,16.91653 16.77187,1.12575 36.82873,-0.72148 56.32682,-5.79397 v -22.09995 c -11.90778,4.0797 -23.04099,7.19279 -33.33202,9.31435 -24.53006,5.05703 -48.913576,4.52584 -71.619456,-1.55844 -5.83949,-1.56475 -11.5203,-3.7227 -21.80374,-8.28534 -3.91985,-1.73919 -7.206785,-3.0886 -7.30517,-2.99733 z" fill="#000000" />
  <circle cx="200" cy="181.40286" r="48.307165"
          fill="none" stroke="#000000" stroke-width="14"
          stroke-linecap="round" stroke-linejoin="round" />
  <line x1="200" y1="266.16109" x2="200" y2="363.06141"
        fill="none" stroke="#000000" stroke-width="14"
        stroke-linecap="round" stroke-linejoin="round" />
  <polyline points="103.85472,320.59526 200,416.74054 296.14528,320.59526"
            fill="none" stroke="#000000" stroke-width="14"
            stroke-linecap="round" stroke-linejoin="miter" />
</g>
  <text x="440" y="180" font-family="Inter, system-ui, sans-serif" font-size="180" letter-spacing="8" dominant-baseline="middle"><tspan fill="#000000" font-weight="400">KÜSTEN</tspan><tspan fill="#000000" font-weight="700">LOGIK</tspan></text>
</svg>
